<svg xmlns="http://www.w3.org/2000/svg" viewBox="0 0 16 16" width="16px"><path d="M1.531.469.47 1.53l.8.801L2.939 4 4 5.063l2.12 2.119L7.817 8.88 8.938 10 10 11.063 12.938 14l1.53 1.531 1.063-1.062-.8-.801A2.513 2.513 0 0 0 16 11.5v-7C16 3.133 14.867 2 13.5 2H3.062L1.532.469zM.246 3.434A2.455 2.455 0 0 0 0 4.5v7C0 12.867 1.133 14 2.5 14h8.313l-2-2H5.5a.498.498 0 0 1-.5-.5v-1c0-.277.223-.5.5-.5h1.313L5 8.187V8.5c0 .277-.223.5-.5.5h-1a.498.498 0 0 1-.5-.5v-1c0-.277.223-.5.5-.5h.313l-1-1H2.5a.498.498 0 0 1-.5-.5v-.313L.246 3.434zM5.5 4h1c.277 0 .5.223.5.5v1a.494.494 0 0 1-.12.318L5.183 4.12A.494.494 0 0 1 5.5 4zm3 0h1c.277 0 .5.223.5.5v1c0 .277-.223.5-.5.5h-1a.498.498 0 0 1-.5-.5v-1c0-.277.223-.5.5-.5zm3 0h1c.277 0 .5.223.5.5v1c0 .277-.223.5-.5.5h-1a.498.498 0 0 1-.5-.5v-1c0-.277.223-.5.5-.5zm-2 3h1c.277 0 .5.223.5.5v1c0 .277-.223.5-.5.5h-.438L9 7.937V7.5c0-.277.223-.5.5-.5zm3 0h1c.277 0 .5.223.5.5v1c0 .277-.223.5-.5.5h-1a.498.498 0 0 1-.5-.5v-1c0-.277.223-.5.5-.5zm-10 3h1c.277 0 .5.223.5.5v1c0 .277-.223.5-.5.5h-1a.498.498 0 0 1-.5-.5v-1c0-.277.223-.5.5-.5zm9 0h1c.277 0 .5.223.5.5v1a.494.494 0 0 1-.12.318l-1.698-1.699A.494.494 0 0 1 11.5 10z" style="fill:#222;fill-opacity:1"/></svg>
