<svg xmlns="http://www.w3.org/2000/svg" viewBox="0 0 16 16" width="16px"><path d="M1.531.469.47 1.53 2.04 3.104v.001l1.99 1.989L5.97 7.03l3.05 3.051 5.45 5.45 1.062-1.063-.54-.541c.433-.153.707-.56.88-1.272.266-1.086.102-3.777-.34-5.75-.52-2.32-1.472-4.11-2.511-4.656-.284-.152-.542-.228-.784-.227a1.15 1.15 0 0 0-.674.227c-.523.375-1.624.781-3.562.781-1.938.004-3.04-.406-3.566-.781a1.056 1.056 0 0 0-.649-.219c-.176 0-.372.038-.576.115L1.531.47zm-.265 3.984a12.864 12.864 0 0 0-.797 2.453C.027 8.88-.137 11.57.125 12.656.355 13.59.754 14 1.461 14c1.043-.02 2.36-1.184 3.191-2.75.439-.632 1.3-1.01 2.256-1.154L4.844 8.03H4.03V7.22l-.187-.188h-.805v-.804L1.266 4.453zm10.207.578c.273 0 .496.223.496.5 0 .278-.223.5-.496.5a.498.498 0 0 1-.496-.5c0-.277.222-.5.496-.5zm-.993 1c.274 0 .497.223.497.5a.498.498 0 1 1-.992 0c0-.277.222-.5.495-.5zm1.985 0c.273 0 .496.223.496.5a.495.495 0 1 1-.992 0c0-.277.219-.5.496-.5zm-.992 1c.273 0 .496.223.496.5 0 .278-.223.5-.496.5a.498.498 0 0 1-.496-.5c0-.277.222-.5.496-.5z" style="fill:#222;fill-opacity:1"/></svg>
